<svg width="24" height="24" viewBox="0 0 24 24" fill="none" xmlns="http://www.w3.org/2000/svg">
<path d="M1 17V20C1 20.5523 1.44772 21 2 21H16C16.5523 21 17 20.5523 17 20V17C17 14.7909 15.2091 13 13 13H5C2.79086 13 1 14.7909 1 17Z" fill="#35383F"/>
<path d="M18.9839 20.3118C18.9485 20.655 19.1912 21 19.5363 21H22C22.5522 21 23 20.5523 23 20V17C23 14.7909 21.2091 13 19 13H18.0314C17.8153 13 17.6967 13.2597 17.8253 13.4334C18.5635 14.4304 19 15.6642 19 17V20C19 20.1053 18.9945 20.2093 18.9839 20.3118Z" fill="#35383F"/>
<path d="M13 7C13 9.20914 11.2091 11 9 11C6.79086 11 5 9.20914 5 7C5 4.79086 6.79086 3 9 3C11.2091 3 13 4.79086 13 7Z" fill="#35383F"/>
<path d="M14.3506 10.9476C14.0099 10.892 13.8937 10.4893 14.0779 10.1973C14.6619 9.2717 14.9999 8.17531 14.9999 7C14.9999 5.82469 14.6619 4.7283 14.0779 3.80271C13.8937 3.51073 14.0099 3.10804 14.3506 3.05242C14.5619 3.01793 14.7788 3 14.9999 3C17.209 3 18.9999 4.79086 18.9999 7C18.9999 9.20914 17.209 11 14.9999 11C14.7788 11 14.5619 10.9821 14.3506 10.9476Z" fill="#35383F"/>
</svg>
